<svg id="Layer_35" enable-background="new 0 0 64 64" height="180" viewBox="0 0 64 64" width="180" xmlns="http://www.w3.org/2000/svg" xmlns:xlink="http://www.w3.org/1999/xlink"><linearGradient id="SVGID_1_" gradientUnits="userSpaceOnUse" x1="32" x2="32" y1="63" y2="1"><stop offset="0" stop-color="#9f2fff"/><stop offset="1" stop-color="#0bb1d3"/></linearGradient><path d="m1 47h10.586l-7.051 7.051c-.99.99-1.535 2.306-1.535 3.707 0 2.89 2.352 5.242 5.242 5.242 1.4 0 2.717-.545 3.707-1.535l11.465-11.465-1.5-1.5 1.929-1.929c2.351 1.531 5.149 2.429 8.157 2.429 2.713 0 5.253-.735 7.452-2h23.548v-46h-62zm9.535 13.051c-.612.612-1.427.949-2.293.949-1.788 0-3.242-1.454-3.242-3.242 0-.866.337-1.681.949-2.293l10.051-10.051 4.586 4.586zm9.965-12.965-1.586-1.586 1.729-1.729c.489.567 1.019 1.097 1.586 1.586zm-1.5-13.086c0-7.168 5.832-13 13-13s13 5.832 13 13-5.832 13-13 13-13-5.832-13-13zm-1.698-3h-10.231c.486-3.388 3.408-6 6.929-6h2c1.209 0 2.364.314 3.399.893-.992 1.535-1.72 3.257-2.097 5.107zm-2.302-8c-2.206 0-4-1.794-4-4s1.794-4 4-4 4 1.794 4 4-1.794 4-4 4zm34 0c-2.206 0-4-1.794-4-4s1.794-4 4-4 4 1.794 4 4-1.794 4-4 4zm1 2c3.521 0 6.442 2.612 6.929 6h-10.231c-.377-1.851-1.105-3.572-2.097-5.108 1.035-.579 2.19-.892 3.399-.892zm-7.836 20c2.965-2.742 4.836-6.652 4.836-11 0-.338-.029-.668-.051-1h12.051v-1c0-3.929-2.534-7.269-6.051-8.494 1.254-1.1 2.051-2.71 2.051-4.506 0-3.309-2.691-6-6-6s-6 2.691-6 6c0 1.792.794 3.398 2.043 4.499-.572.199-1.123.458-1.647.773-2.754-3.221-6.837-5.272-11.396-5.272-4.56 0-8.643 2.051-11.396 5.272-.525-.314-1.075-.574-1.647-.773 1.249-1.1 2.043-2.707 2.043-4.499 0-3.309-2.691-6-6-6s-6 2.691-6 6c0 1.796.797 3.406 2.051 4.506-3.517 1.225-6.051 4.565-6.051 8.494v1h12.051c-.022.332-.051.662-.051 1 0 3.008.898 5.806 2.429 8.157l-1.929 1.929-1.5-1.5-2.414 2.414h-10.586v-34h58v34zm18.836-42v6h-58v-6zm-54 4h-2v-2h2zm4 0h-2v-2h2zm4 0h-2v-2h2zm17 16c-6.065 0-11 4.935-11 11s4.935 11 11 11 11-4.935 11-11-4.935-11-11-11zm0 20c-4.963 0-9-4.037-9-9s4.037-9 9-9 9 4.037 9 9-4.037 9-9 9zm-5-10h10v2h-10zm0-4h10v2h-10zm0 8h10v2h-10zm22-2h10v2h-10zm0 4h10v2h-10zm-44-4h10v2h-10zm0 4h10v2h-10zm22-26h2v2h-2zm4 0h2v2h-2zm4 0h2v2h-2z" fill="url(#SVGID_1_)"/></svg>